HIERARCHY
ROOT Hips
{
	OFFSET -249.116806 92.288788 332.350586
	CHANNELS 6 Xposition Yposition Zposition Zrotation Yrotation Xrotation 
	JOINT LeftUpLeg
	{
		OFFSET 0.103458 1.857838 10.548509
		CHANNELS 3 Zrotation Yrotation Xrotation
		JOINT LeftLeg
		{
			OFFSET 43.500004 -0.000038 -0.000002
			CHANNELS 3 Zrotation Yrotation Xrotation
			JOINT LeftFoot
			{
				OFFSET 42.372196 0.000015 0.000010
				CHANNELS 3 Zrotation Yrotation Xrotation
				JOINT LeftToe
				{
					OFFSET 17.300011 0.000003 -0.000006
					CHANNELS 3 Zrotation Yrotation Xrotation
					End Site
					{
						OFFSET 0.000000 0.000000 0.000000
					}
				}
			}
		}
	}
	JOINT RightUpLeg
	{
		OFFSET 0.103461 1.857837 -10.548498
		CHANNELS 3 Zrotation Yrotation Xrotation
		JOINT RightLeg
		{
			OFFSET 43.500046 -0.000042 0.000031
			CHANNELS 3 Zrotation Yrotation Xrotation
			JOINT RightFoot
			{
				OFFSET 42.372253 0.000011 -0.000004
				CHANNELS 3 Zrotation Yrotation Xrotation
				JOINT RightToe
				{
					OFFSET 17.299978 -0.000010 0.000025
					CHANNELS 3 Zrotation Yrotation Xrotation
					End Site
					{
						OFFSET 0.000000 0.000000 0.000000
					}
				}
			}
		}
	}
	JOINT Spine
	{
		OFFSET 6.901964 -2.603743 0.000001
		CHANNELS 3 Zrotation Yrotation Xrotation
		JOINT Spine1
		{
			OFFSET 12.588102 0.000002 0.000000
			CHANNELS 3 Zrotation Yrotation Xrotation
			JOINT Spine2
			{
				OFFSET 12.343204 0.000009 -0.000003
				CHANNELS 3 Zrotation Yrotation Xrotation
				JOINT Neck
				{
					OFFSET 25.832901 -0.000015 0.000002
					CHANNELS 3 Zrotation Yrotation Xrotation
					JOINT Head
					{
						OFFSET 11.766612 0.000023 -0.000003
						CHANNELS 3 Zrotation Yrotation Xrotation
						End Site
						{
							OFFSET 0.000000 0.000000 0.000000
						}
					}
				}
				JOINT LeftShoulder
				{
					OFFSET 19.745905 -1.480377 6.000110
					CHANNELS 3 Zrotation Yrotation Xrotation
					JOINT LeftArm
					{
						OFFSET 11.284127 -0.000004 -0.000022
						CHANNELS 3 Zrotation Yrotation Xrotation
						JOINT LeftForeArm
						{
							OFFSET 33.000050 -0.000022 0.000026
							CHANNELS 3 Zrotation Yrotation Xrotation
							JOINT LeftHand
							{
								OFFSET 25.200010 0.000035 0.000011
								CHANNELS 3 Zrotation Yrotation Xrotation
								End Site
								{
									OFFSET 0.000000 0.000000 0.000000
								}
							}
						}
					}
				}
				JOINT RightShoulder
				{
					OFFSET 19.746092 -1.480381 -6.000066
					CHANNELS 3 Zrotation Yrotation Xrotation
					JOINT RightArm
					{
						OFFSET 11.284147 -0.000020 -0.000017
						CHANNELS 3 Zrotation Yrotation Xrotation
						JOINT RightForeArm
						{
							OFFSET 33.000095 0.000005 0.000016
							CHANNELS 3 Zrotation Yrotation Xrotation
							JOINT RightHand
							{
								OFFSET 25.199768 0.000156 0.000415
								CHANNELS 3 Zrotation Yrotation Xrotation
								End Site
								{
									OFFSET 0.000000 0.000000 0.000000
								}
							}
						}
					}
				}
			}
		}
	}
}
MOTION
Frames: 12
Frame Time: 0.033333
323.282806 73.176773 -105.726700 90.567243 -5.911810 -119.194273 -178.606250 -19.495610 -162.182828 -83.997134 2.157663 5.105415 95.235520 -4.091431 -4.902693 21.454555 0.003095 -0.000003 137.575733 28.487505 172.955580 -42.560753 -1.525674 -0.684968 72.538590 7.027728 20.089692 21.454558 -0.003115 -0.000018 10.898505 -0.008602 1.460558 11.782093 -0.166063 2.912567 11.464448 -0.148335 2.913524 8.992770 2.004431 5.844318 -21.924315 -10.985077 10.857652 -150.000708 -76.284860 -32.117288 5.745837 55.062431 37.007126 -63.550689 -19.057199 2.513722 -1.418522 -11.362837 16.117010 153.546614 76.063015 -25.549197 17.357353 -38.524811 -59.866321 -50.434991 19.689000 -2.107765 -2.920568 16.048918 -15.197446 
328.364014 72.687370 -109.806297 92.936089 -5.855187 -121.223878 175.255059 -15.274699 -163.470141 -99.938467 3.084304 7.308208 100.004891 -5.268555 -4.108461 21.454562 0.003084 0.000002 137.530667 27.970904 -179.884220 -51.082520 -3.182098 -3.426155 74.281777 8.779862 20.264881 21.454558 -0.003105 -0.000017 11.586228 0.445110 2.573599 13.173317 0.593876 5.181101 12.856624 0.625254 5.177440 6.650845 1.691342 5.522587 -22.304266 -10.649460 10.414006 -152.090390 -75.826575 -29.995882 3.611743 57.721785 36.777208 -58.166164 -20.096017 2.378614 -0.440840 -12.263825 9.812831 147.761690 74.026102 -31.562509 7.066749 -35.642290 -50.070290 -47.944557 19.687684 -2.026142 -1.551733 15.005533 -15.578254 
332.786896 72.650352 -113.733299 92.060404 -4.531859 -119.649779 163.696330 -7.798207 -166.557346 -111.294190 3.190112 6.261207 101.794510 -4.430687 -3.272555 21.454553 0.003084 0.000000 136.849848 29.516799 -179.118829 -58.521839 -2.673382 -3.453990 79.698896 7.861104 20.787022 21.454557 -0.003113 -0.000018 11.455640 0.438337 2.815451 12.912524 0.559257 5.662177 12.596098 0.593519 5.658721 4.715870 1.875497 5.159675 -21.772700 -10.901576 10.113918 -153.047505 -75.313197 -29.030736 2.997956 58.116495 38.095165 -55.665557 -19.092100 2.218319 1.001781 -13.302370 4.087475 141.843413 72.810220 -37.670778 -1.506208 -33.061555 -44.310453 -46.114176 21.733843 -2.104678 -1.474981 14.718562 -16.768102 
336.258698 73.269524 -117.760803 91.704647 -3.756713 -116.872309 152.100704 0.236486 -173.958566 -114.420196 2.934649 5.972623 102.639199 -4.110979 -1.846442 21.454560 0.003089 0.000002 139.913912 30.710805 -178.492828 -62.107026 -1.838355 -2.183890 83.605429 6.452582 22.034472 21.454560 -0.003113 -0.000019 11.390238 0.534118 2.965866 12.787216 0.736703 5.972618 12.470983 0.772826 5.968088 3.435812 2.305420 4.323760 -20.417773 -10.679681 9.066928 -154.043893 -76.052019 -27.993983 4.932279 58.740385 41.363038 -56.290150 -18.128485 2.175227 0.419108 -10.585498 3.368667 141.389355 74.038998 -38.044625 -8.622204 -32.131238 -34.779255 -49.954914 22.518949 -2.282532 -1.206746 13.718481 -20.236158 
339.178101 74.251427 -121.927597 91.623497 -2.853887 -113.261475 141.517025 7.043498 177.193726 -107.887899 2.296319 6.343898 100.859088 -4.381470 -1.880419 21.454562 0.003097 0.000001 144.835145 30.728604 -174.855233 -63.363119 -3.951197 -0.219475 85.915010 5.247015 24.885553 21.454557 -0.003111 -0.000016 11.313066 0.721945 2.985250 12.643320 1.112849 6.031736 12.327093 1.149335 6.024947 3.344488 1.729203 3.429830 -21.645631 -9.756247 7.820959 -156.129409 -76.560786 -25.852567 6.470465 58.918270 45.242545 -58.564842 -17.984368 2.248579 -1.575047 -11.058540 5.582634 141.649695 75.596390 -37.669176 -12.734417 -31.110149 -25.870400 -57.348857 22.437052 -2.541639 -2.506256 13.755717 -22.223844 
342.011902 75.450798 -126.244797 93.255120 -1.475600 -109.055725 135.666108 10.670314 170.950879 -93.599205 0.533320 3.532971 99.483529 -2.448243 -1.582221 21.454553 0.003087 -0.000002 149.866126 28.072996 -174.393758 -65.130778 -3.745830 2.879614 83.995460 3.700333 25.876301 21.454562 -0.003112 -0.000017 11.209859 1.163082 2.881149 12.460493 2.008651 5.871744 12.144000 2.044145 5.859580 3.328872 3.643450 2.536999 -22.113735 -10.352005 7.449185 -155.478615 -78.700438 -26.471488 8.932051 61.355658 47.354794 -60.829876 -17.308562 2.287367 -2.078145 -9.616556 5.617326 145.710338 75.047892 -33.582589 -14.521366 -27.762183 -20.748341 -64.595749 21.595163 -2.767580 -3.193778 14.314569 -24.265722 
345.155609 76.771172 -131.258804 97.027448 -0.442380 -104.735719 136.171105 11.356602 169.615604 -74.436822 -2.703182 2.271891 95.559476 -1.449099 -0.391693 21.454557 0.003095 0.000002 153.632224 22.397514 -176.791756 -68.426481 -2.805784 5.502486 74.289352 3.754994 24.884527 21.454563 -0.003109 -0.000020 11.260252 1.960069 2.642880 12.600977 3.620233 5.486527 12.283782 3.653382 5.464636 3.037462 5.642441 2.047044 -22.750771 -10.770400 7.473166 -157.416886 -80.137872 -24.472716 9.629190 62.937755 48.689932 -62.343392 -17.282532 2.343601 -2.670034 -8.521861 6.855051 148.509377 74.911384 -30.744587 -16.241643 -26.531318 -16.303569 -68.426959 21.281189 -2.904378 -4.505712 13.186235 -26.383441 
348.305206 77.034767 -136.992004 100.370204 -0.804705 -101.471981 141.529852 11.469299 168.559889 -55.302191 -5.635918 4.195465 85.470931 -3.065323 -1.821611 21.454550 0.003075 0.000008 154.880017 17.697013 178.834010 -74.841654 -2.200398 4.447114 66.636548 4.960813 21.346868 21.454560 -0.003114 -0.000014 11.532980 2.437096 2.348506 13.163602 4.590773 4.963540 12.845696 4.620756 4.935784 2.158698 7.510175 1.835502 -23.842782 -11.564049 8.045237 -158.754128 -81.326967 -23.095827 9.065674 63.301408 48.003956 -64.701904 -16.812613 2.403423 -3.719635 -9.179032 10.201544 148.743584 75.042885 -30.497990 -16.686559 -27.351627 -11.854666 -71.122493 20.156662 -2.938425 -4.660671 12.978671 -25.211021 
351.252197 76.668777 -142.472198 102.309001 -1.061479 -98.629817 145.957400 12.841907 164.071908 -46.172707 -5.762843 2.709244 75.729190 1.526203 11.070964 21.454551 0.003082 -0.000000 153.468504 14.130407 174.965759 -81.266404 -2.438498 3.571873 67.106486 4.075724 17.469390 21.454553 -0.003108 -0.000019 11.609578 2.632204 1.948202 13.311357 5.022424 4.190968 12.992854 5.047751 4.160567 4.294344 9.379286 2.148560 -26.709219 -12.142998 9.108260 -163.104685 -81.489245 -18.683976 6.499029 61.574668 44.860372 -67.666780 -16.492077 2.500081 -3.214674 -8.221501 15.073958 150.580072 73.668528 -28.712944 -15.061889 -26.576198 -11.871032 -72.241791 19.836200 -2.963577 -5.596705 13.245366 -22.302443 
354.075989 74.887810 -147.819504 104.471302 -1.735354 -95.909421 151.077788 13.805404 160.653549 -47.569716 -3.827409 0.717928 85.181646 6.829110 34.742987 21.454551 0.003095 -0.000001 149.517363 11.661412 172.642375 -87.409776 -2.795476 3.301003 73.986078 3.258302 17.813067 21.454555 -0.003108 -0.000021 11.806984 2.770166 1.471588 13.692555 5.346356 3.264986 13.373515 5.366111 3.232600 4.107716 10.351723 2.842874 -26.964327 -11.210311 9.576486 -158.473011 -82.314079 -23.364737 3.313879 60.089901 40.010832 -71.734287 -15.014224 2.564599 -3.833922 -9.104788 17.598583 153.815901 74.307103 -25.375196 -14.345434 -27.769526 -12.439950 -72.384009 19.666063 -2.957486 -6.565275 12.673048 -21.540683 
356.325287 72.815437 -152.821304 105.512393 -2.019126 -93.122683 154.101608 17.198812 168.125120 -50.373540 -2.929420 -4.536220 97.569109 6.487666 38.015364 21.454553 0.003083 -0.000003 142.874922 9.925406 170.262478 -89.453219 -3.272003 2.990228 80.866113 1.514258 14.240815 21.454553 -0.003105 -0.000019 12.112649 2.671291 0.991645 14.279807 5.199449 2.308513 13.960564 5.213417 2.277034 1.897210 12.321321 3.063380 -27.756939 -11.469650 10.536095 -160.712097 -82.213157 -21.099759 -0.660166 57.194375 31.122754 -77.614349 -12.154507 2.613719 -4.591044 -10.751574 19.404769 158.369165 74.413408 -20.723301 -12.698861 -28.939795 -13.483041 -70.667876 20.024691 -2.909494 -6.219250 12.095321 -21.720930 
357.553009 71.514847 -157.840103 105.489799 -1.823441 -89.642702 156.297090 20.575118 172.997927 -54.024266 -1.695511 -7.712731 103.583808 6.283355 37.530090 21.454553 0.003103 0.000001 135.662351 7.189300 167.029312 -87.287502 -3.592483 1.025981 85.816115 1.739177 11.606978 21.454557 -0.003104 -0.000021 12.446034 2.535388 0.353916 14.916155 5.003713 1.033479 14.596778 5.010001 1.003172 -0.362162 13.605586 3.257170 -29.373905 -10.922232 11.158770 -173.690276 -82.043078 -7.958730 -3.648486 55.023348 19.738772 -84.477767 -8.238373 2.637727 -7.763642 -11.722675 23.082810 161.348999 74.124191 -17.693694 -9.502613 -30.204760 -16.107205 -67.444020 21.052245 -2.846676 -6.549213 14.855682 -22.046403 
